<svg fill="#4A4A4A" width="800" height="800" viewBox="0 -8 72 72" data-name="Layer 1" xmlns="http://www.w3.org/2000/svg"><path d="M48.89 48.14h1.27a6 6 0 0 0 6-6v-36a6 6 0 0 0-6-6H21.84a6 6 0 0 0-6 6v36a6 6 0 0 0 6 6h1.27l-8.56 7.66H20l2.74-2.45h26.57l2.74 2.45h5.4ZM48 44.45a3 3 0 1 1 3-3 2.95 2.95 0 0 1-3 3Zm-18.72-42h13.43a1.65 1.65 0 0 1 0 3.3H29.29a1.65 1.65 0 1 1 0-3.3Zm-10.44 23.8v-15.1a3 3 0 0 1 3-3h28.32a3 3 0 0 1 3 3v15.1a3 3 0 0 1-3 3H21.84a3 3 0 0 1-3-3ZM21 41.5a3 3 0 1 1 2.95 3 2.95 2.95 0 0 1-2.95-3Zm5.67 8.25 1.78-1.61h15.13l1.71 1.61Z"/></svg>