<svg width="800" height="800" viewBox="0 0 24 24" fill="none" xmlns="http://www.w3.org/2000/svg"><g clip-path="url(#a)" stroke="#F42F46" stroke-width="2.5"><circle cx="12" cy="12" r="2"/><path d="M5.399 5.88A8.99 8.99 0 0 0 3.4 9.344l1.6.924c1.333.77 1.333 2.694 0 3.464l-1.601.924a9.03 9.03 0 0 0 2 3.464l1.6-.924c1.334-.77 3 .193 3 1.732v1.847a8.99 8.99 0 0 0 4.001.002v-1.849c0-1.54 1.667-2.502 3-1.732l1.601.925a8.99 8.99 0 0 0 1.998-3.466L19 13.732c-1.333-.77-1.333-2.694 0-3.464l1.601-.924a9.03 9.03 0 0 0-2-3.464L17 6.803c-1.333.77-3-.193-3-1.732V3.225a8.99 8.99 0 0 0-4-.002v1.849c0 1.54-1.667 2.502-3 1.732l-1.601-.925Z" stroke-linejoin="round"/></g><defs><clipPath id="a"><path fill="#fff" d="M0 0h24v24H0z"/></clipPath></defs></svg>