<svg fill="#F42F46" height="800" width="800" xmlns="http://www.w3.org/2000/svg" viewBox="0 0 496 496" xml:space="preserve"><path d="M343.712 101.64c.112-1.88.288-3.744.288-5.64 0-52.936-43.064-96-96-96s-96 43.064-96 96c0 1.896.176 3.76.288 5.64L0 211.912V232h40v264h416V232h40v-20.088L343.712 101.64zM248 16c44.112 0 80 35.888 80 80 0 21.192-8.24 40.92-23.12 56H256v-8h4c15.44 0 28-12.56 28-28s-12.56-28-28-28h-24c-6.616 0-12-5.384-12-12s5.384-12 12-12h24c6.616 0 12 5.384 12 12v4h16v-4c0-15.44-12.56-28-28-28h-4V32h-16v16h-4c-15.44 0-28 12.56-28 28s12.56 28 28 28h24c6.616 0 12 5.384 12 12s-5.384 12-12 12h-24c-6.616 0-12-5.384-12-12v-4h-16v4c0 15.44 12.56 28 28 28h4v8h-48.88C176.24 136.92 168 117.192 168 96c0-44.112 35.888-80 80-80zm72 464H176V360c0-39.696 32.296-72 72-72s72 32.304 72 72v120zm120 0H336V360c0-48.52-39.48-88-88-88s-88 39.48-88 88v120H56V232h384v248zm8-264H21.64l133.352-96.56c2.936 11.704 8.008 22.72 15.152 32.56H136v16h224v-16h-34.144c7.144-9.84 12.216-20.848 15.152-32.56L474.36 216H448z"/></svg>