<svg fill="#F42F46" height="800" width="800" version="1.2" baseProfile="tiny" xmlns="http://www.w3.org/2000/svg" viewBox="-351 153 256 256" xml:space="preserve"><path d="m-224.4 158.5-120.8 60.9V403h9.7V225.2l111.2-55.7 111.3 56V403h9.5V219.4l-120.9-60.9zm61.3 167.2-11.6-29.9c-2.1-5.6-6.9-10.5-15.8-10.5H-251c-8.8 0-13.5 4.8-15.8 10.5l-11.6 29.9c-4.5.6-12.7 5.9-12.7 16.1v37.9h11.3v12.1c0 14.9 21.2 14.7 21.2 0v-12.1h76v12.1c0 14.7 21.2 14.9 21.2 0v-12.1h11.3v-37.9c-.4-10.2-8.5-15.7-13-16.1zM-269 356.9c-5.4 0-9.8-4.5-9.8-10s4.4-10 9.8-10 9.8 4.5 9.8 10c0 5.4-4.3 10-9.8 10zm48.3-31.5h-45.7l8.7-23.4c1.1-3.3 2.7-5.6 6.6-5.8h60.8c3.8 0 5.5 2.5 6.6 5.8l8.7 23.4h-45.7zm48.2 31.5c-5.4 0-9.8-4.5-9.8-10s4.4-10 9.8-10 9.8 4.5 9.8 10c0 5.4-4.6 10-9.8 10zm-84.8-83c10.6 0 20.1-5.9 24.9-14.6h14.8l9.2-9.2 7.2 7.2 6.9-6.9 7 7.2 7.2-7.2 7.2 7.2 12-12.1c1.8-1.8 1.8-3 0-4.8l-9.9-10H-232c-5.2-9-14.5-14.8-25.2-14.8-16 0-28.9 13.1-28.9 29.2 0 15.8 13 28.8 28.8 28.8zm-12.6-37c4.3 0 7.6 3.5 7.6 7.7 0 4.3-3.5 7.7-7.6 7.7s-7.6-3.5-7.6-7.7c0-4.3 3.4-7.7 7.6-7.7z"/></svg>