<svg width="800" height="800" viewBox="0 0 24 24" fill="none" xmlns="http://www.w3.org/2000/svg"><path d="M5 21H3V4.6c0-.56 0-.84.109-1.054a1 1 0 0 1 .437-.437C3.76 3 4.04 3 4.6 3h8.8c.56 0 .84 0 1.054.109a1 1 0 0 1 .437.437C15 3.76 15 4.04 15 4.6V8M6 7h1m-1 3h1m-1 3h1m4-6h1m-2 8 .27-.812c.263-.787.394-1.18.637-1.471.215-.257.49-.456.803-.578.352-.139.767-.139 1.596-.139h3.388c.829 0 1.244 0 1.597.139.311.122.587.321.802.578.243.29.374.684.636 1.471L20 15m1 6v-2.8c0-1.12 0-1.68-.218-2.108a2 2 0 0 0-.874-.874C19.48 15 18.92 15 17.8 15h-5.6c-1.12 0-1.68 0-2.108.218a2 2 0 0 0-.874.874C9 16.52 9 17.08 9 18.2V21m0-1h12m-9-2.5h.01m5.99 0h.01" stroke="#F42F46" stroke-width="2" stroke-linecap="round" stroke-linejoin="round"/></svg>